<?xml version="1.0" encoding="UTF-8" standalone="no"?>
<!DOCTYPE svg PUBLIC "-//W3C//DTD SVG 1.1//EN"
 "http://www.w3.org/Graphics/SVG/1.1/DTD/svg11.dtd">
<!-- Generated by graphviz version 2.47.3 (20210619.1520)
 -->
<!-- Title: dependencies Pages: 1 -->
<svg width="2086pt" height="247pt"
 viewBox="0.00 0.00 2086.00 246.80" xmlns="http://www.w3.org/2000/svg" xmlns:xlink="http://www.w3.org/1999/xlink">
<g id="graph0" class="graph" transform="scale(1 1) rotate(0) translate(4 242.8)">
<title>dependencies</title>
<polygon fill="white" stroke="transparent" points="-4,4 -4,-242.8 2082,-242.8 2082,4 -4,4"/>
<text text-anchor="middle" x="1039" y="-8.2" font-family="sans-serif" font-size="14.00">dependencies</text>
<g id="clust1" class="cluster">
<title>cluster_AppModule</title>
<polygon fill="none" stroke="black" stroke-dasharray="1,5" points="8,-32.8 8,-230.8 2070,-230.8 2070,-32.8 8,-32.8"/>
</g>
<g id="clust2" class="cluster">
<title>cluster_AppModule_declarations</title>
<polygon fill="none" stroke="black" points="598,-40.8 598,-92.8 2062,-92.8 2062,-40.8 598,-40.8"/>
</g>
<g id="clust12" class="cluster">
<title>cluster_AppModule_imports</title>
<polygon fill="none" stroke="black" points="298,-40.8 298,-92.8 590,-92.8 590,-40.8 298,-40.8"/>
</g>
<g id="clust14" class="cluster">
<title>cluster_AppModule_bootstrap</title>
<polygon fill="none" stroke="black" points="926,-170.8 926,-222.8 1050,-222.8 1050,-170.8 926,-170.8"/>
</g>
<g id="clust15" class="cluster">
<title>cluster_AppModule_providers</title>
<polygon fill="none" stroke="black" points="16,-40.8 16,-92.8 290,-92.8 290,-40.8 16,-40.8"/>
</g>
<!-- AddApplicantComponent -->
<g id="node1" class="node">
<title>AddApplicantComponent</title>
<polygon fill="#ffffb3" stroke="black" points="2054.15,-84.8 1893.85,-84.8 1893.85,-48.8 2054.15,-48.8 2054.15,-84.8"/>
<text text-anchor="middle" x="1974" y="-62.6" font-family="Times,serif" font-size="14.00">AddApplicantComponent</text>
</g>
<!-- AppModule -->
<g id="node10" class="node">
<title>AppModule</title>
<polygon fill="#8dd3c7" stroke="black" points="1029.66,-149.8 1026.66,-153.8 1005.66,-153.8 1002.66,-149.8 946.34,-149.8 946.34,-113.8 1029.66,-113.8 1029.66,-149.8"/>
<text text-anchor="middle" x="988" y="-127.6" font-family="Times,serif" font-size="14.00">AppModule</text>
</g>
<!-- AddApplicantComponent&#45;&gt;AppModule -->
<g id="edge1" class="edge">
<title>AddApplicantComponent&#45;&gt;AppModule</title>
<path fill="none" stroke="black" d="M1974,-84.89C1974,-107.93 1974,-144.8 1974,-144.8 1974,-144.8 1039.74,-144.8 1039.74,-144.8"/>
<polygon fill="black" stroke="black" points="1039.74,-141.3 1029.74,-144.8 1039.74,-148.3 1039.74,-141.3"/>
</g>
<!-- AllInterviewsComponent -->
<g id="node2" class="node">
<title>AllInterviewsComponent</title>
<polygon fill="#ffffb3" stroke="black" points="1876.3,-84.8 1717.7,-84.8 1717.7,-48.8 1876.3,-48.8 1876.3,-84.8"/>
<text text-anchor="middle" x="1797" y="-62.6" font-family="Times,serif" font-size="14.00">AllInterviewsComponent</text>
</g>
<!-- AllInterviewsComponent&#45;&gt;AppModule -->
<g id="edge2" class="edge">
<title>AllInterviewsComponent&#45;&gt;AppModule</title>
<path fill="none" stroke="black" d="M1797,-84.84C1797,-106.46 1797,-139.8 1797,-139.8 1797,-139.8 1039.79,-139.8 1039.79,-139.8"/>
<polygon fill="black" stroke="black" points="1039.79,-136.3 1029.79,-139.8 1039.79,-143.3 1039.79,-136.3"/>
</g>
<!-- AppComponent -->
<g id="node3" class="node">
<title>AppComponent</title>
<polygon fill="#ffffb3" stroke="black" points="1699.94,-84.8 1594.06,-84.8 1594.06,-48.8 1699.94,-48.8 1699.94,-84.8"/>
<text text-anchor="middle" x="1647" y="-62.6" font-family="Times,serif" font-size="14.00">AppComponent</text>
</g>
<!-- AppComponent&#45;&gt;AppModule -->
<g id="edge3" class="edge">
<title>AppComponent&#45;&gt;AppModule</title>
<path fill="none" stroke="black" d="M1647,-85.02C1647,-105.17 1647,-134.8 1647,-134.8 1647,-134.8 1039.72,-134.8 1039.72,-134.8"/>
<polygon fill="black" stroke="black" points="1039.72,-131.3 1029.72,-134.8 1039.72,-138.3 1039.72,-131.3"/>
</g>
<!-- CreateInterviewComponent -->
<g id="node4" class="node">
<title>CreateInterviewComponent</title>
<polygon fill="#ffffb3" stroke="black" points="1576.5,-84.8 1405.5,-84.8 1405.5,-48.8 1576.5,-48.8 1576.5,-84.8"/>
<text text-anchor="middle" x="1491" y="-62.6" font-family="Times,serif" font-size="14.00">CreateInterviewComponent</text>
</g>
<!-- CreateInterviewComponent&#45;&gt;AppModule -->
<g id="edge4" class="edge">
<title>CreateInterviewComponent&#45;&gt;AppModule</title>
<path fill="none" stroke="black" d="M1491,-85.02C1491,-103.63 1491,-129.8 1491,-129.8 1491,-129.8 1040.02,-129.8 1040.02,-129.8"/>
<polygon fill="black" stroke="black" points="1040.02,-126.3 1030.02,-129.8 1040.02,-133.3 1040.02,-126.3"/>
</g>
<!-- DashboardComponent -->
<g id="node5" class="node">
<title>DashboardComponent</title>
<polygon fill="#ffffb3" stroke="black" points="1386.97,-84.8 1245.03,-84.8 1245.03,-48.8 1386.97,-48.8 1386.97,-84.8"/>
<text text-anchor="middle" x="1316" y="-62.6" font-family="Times,serif" font-size="14.00">DashboardComponent</text>
</g>
<!-- DashboardComponent&#45;&gt;AppModule -->
<g id="edge5" class="edge">
<title>DashboardComponent&#45;&gt;AppModule</title>
<path fill="none" stroke="black" d="M1316,-84.83C1316,-101.86 1316,-124.8 1316,-124.8 1316,-124.8 1039.87,-124.8 1039.87,-124.8"/>
<polygon fill="black" stroke="black" points="1039.87,-121.3 1029.87,-124.8 1039.87,-128.3 1039.87,-121.3"/>
</g>
<!-- FindInterviewComponent -->
<g id="node6" class="node">
<title>FindInterviewComponent</title>
<polygon fill="#ffffb3" stroke="black" points="1227.14,-84.8 1066.86,-84.8 1066.86,-48.8 1227.14,-48.8 1227.14,-84.8"/>
<text text-anchor="middle" x="1147" y="-62.6" font-family="Times,serif" font-size="14.00">FindInterviewComponent</text>
</g>
<!-- FindInterviewComponent&#45;&gt;AppModule -->
<g id="edge6" class="edge">
<title>FindInterviewComponent&#45;&gt;AppModule</title>
<path fill="none" stroke="black" d="M1147,-85.04C1147,-100.37 1147,-119.8 1147,-119.8 1147,-119.8 1039.78,-119.8 1039.78,-119.8"/>
<polygon fill="black" stroke="black" points="1039.78,-116.3 1029.78,-119.8 1039.78,-123.3 1039.78,-116.3"/>
</g>
<!-- HeaderComponent -->
<g id="node7" class="node">
<title>HeaderComponent</title>
<polygon fill="#ffffb3" stroke="black" points="1048.74,-84.8 927.26,-84.8 927.26,-48.8 1048.74,-48.8 1048.74,-84.8"/>
<text text-anchor="middle" x="988" y="-62.6" font-family="Times,serif" font-size="14.00">HeaderComponent</text>
</g>
<!-- HeaderComponent&#45;&gt;AppModule -->
<g id="edge7" class="edge">
<title>HeaderComponent&#45;&gt;AppModule</title>
<path fill="none" stroke="black" d="M988,-84.91C988,-84.91 988,-103.79 988,-103.79"/>
<polygon fill="black" stroke="black" points="984.5,-103.79 988,-113.79 991.5,-103.79 984.5,-103.79"/>
</g>
<!-- LoginComponent -->
<g id="node8" class="node">
<title>LoginComponent</title>
<polygon fill="#ffffb3" stroke="black" points="909.28,-84.8 794.72,-84.8 794.72,-48.8 909.28,-48.8 909.28,-84.8"/>
<text text-anchor="middle" x="852" y="-62.6" font-family="Times,serif" font-size="14.00">LoginComponent</text>
</g>
<!-- LoginComponent&#45;&gt;AppModule -->
<g id="edge8" class="edge">
<title>LoginComponent&#45;&gt;AppModule</title>
<path fill="none" stroke="black" d="M852,-85.04C852,-100.37 852,-119.8 852,-119.8 852,-119.8 936.09,-119.8 936.09,-119.8"/>
<polygon fill="black" stroke="black" points="936.09,-123.3 946.09,-119.8 936.09,-116.3 936.09,-123.3"/>
</g>
<!-- ViewInterviewsComponent -->
<g id="node9" class="node">
<title>ViewInterviewsComponent</title>
<polygon fill="#ffffb3" stroke="black" points="776.23,-84.8 605.77,-84.8 605.77,-48.8 776.23,-48.8 776.23,-84.8"/>
<text text-anchor="middle" x="691" y="-62.6" font-family="Times,serif" font-size="14.00">ViewInterviewsComponent</text>
</g>
<!-- ViewInterviewsComponent&#45;&gt;AppModule -->
<g id="edge9" class="edge">
<title>ViewInterviewsComponent&#45;&gt;AppModule</title>
<path fill="none" stroke="black" d="M691,-84.83C691,-101.86 691,-124.8 691,-124.8 691,-124.8 936.08,-124.8 936.08,-124.8"/>
<polygon fill="black" stroke="black" points="936.08,-128.3 946.08,-124.8 936.08,-121.3 936.08,-128.3"/>
</g>
<!-- AppComponent  -->
<g id="node13" class="node">
<title>AppComponent </title>
<polygon fill="#80b1d3" stroke="black" points="1042.44,-214.8 933.56,-214.8 933.56,-178.8 1042.44,-178.8 1042.44,-214.8"/>
<text text-anchor="middle" x="988" y="-192.6" font-family="Times,serif" font-size="14.00">AppComponent </text>
</g>
<!-- AppModule&#45;&gt;AppComponent  -->
<g id="edge12" class="edge">
<title>AppModule&#45;&gt;AppComponent </title>
<path fill="none" stroke="black" stroke-dasharray="1,5" d="M988,-149.91C988,-149.91 988,-168.79 988,-168.79"/>
<polygon fill="black" stroke="black" points="984.5,-168.79 988,-178.79 991.5,-168.79 984.5,-168.79"/>
</g>
<!-- AppRoutingModule -->
<g id="node11" class="node">
<title>AppRoutingModule</title>
<polygon fill="#8dd3c7" stroke="black" points="582.27,-84.8 579.27,-88.8 558.27,-88.8 555.27,-84.8 453.73,-84.8 453.73,-48.8 582.27,-48.8 582.27,-84.8"/>
<text text-anchor="middle" x="518" y="-62.6" font-family="Times,serif" font-size="14.00">AppRoutingModule</text>
</g>
<!-- AppRoutingModule&#45;&gt;AppModule -->
<g id="edge10" class="edge">
<title>AppRoutingModule&#45;&gt;AppModule</title>
<path fill="none" stroke="black" d="M518,-85.02C518,-103.63 518,-129.8 518,-129.8 518,-129.8 936.29,-129.8 936.29,-129.8"/>
<polygon fill="black" stroke="black" points="936.29,-133.3 946.29,-129.8 936.29,-126.3 936.29,-133.3"/>
</g>
<!-- MyCalendarModule -->
<g id="node12" class="node">
<title>MyCalendarModule</title>
<polygon fill="#8dd3c7" stroke="black" points="435.53,-84.8 432.53,-88.8 411.53,-88.8 408.53,-84.8 306.47,-84.8 306.47,-48.8 435.53,-48.8 435.53,-84.8"/>
<text text-anchor="middle" x="371" y="-62.6" font-family="Times,serif" font-size="14.00">MyCalendarModule</text>
</g>
<!-- MyCalendarModule&#45;&gt;AppModule -->
<g id="edge11" class="edge">
<title>MyCalendarModule&#45;&gt;AppModule</title>
<path fill="none" stroke="black" d="M371,-85.02C371,-105.17 371,-134.8 371,-134.8 371,-134.8 936.08,-134.8 936.08,-134.8"/>
<polygon fill="black" stroke="black" points="936.08,-138.3 946.08,-134.8 936.08,-131.3 936.08,-138.3"/>
</g>
<!-- AppInterceptor -->
<g id="node14" class="node">
<title>AppInterceptor</title>
<ellipse fill="#fdb462" stroke="black" cx="212" cy="-66.8" rx="70.04" ry="18"/>
<text text-anchor="middle" x="212" y="-62.6" font-family="Times,serif" font-size="14.00">AppInterceptor</text>
</g>
<!-- AppInterceptor&#45;&gt;AppModule -->
<g id="edge13" class="edge">
<title>AppInterceptor&#45;&gt;AppModule</title>
<path fill="none" stroke="black" d="M212,-84.84C212,-106.46 212,-139.8 212,-139.8 212,-139.8 936.28,-139.8 936.28,-139.8"/>
<polygon fill="black" stroke="black" points="936.28,-143.3 946.28,-139.8 936.28,-136.3 936.28,-143.3"/>
</g>
<!-- Requester -->
<g id="node15" class="node">
<title>Requester</title>
<ellipse fill="#fdb462" stroke="black" cx="74" cy="-66.8" rx="49.8" ry="18"/>
<text text-anchor="middle" x="74" y="-62.6" font-family="Times,serif" font-size="14.00">Requester</text>
</g>
<!-- Requester&#45;&gt;AppModule -->
<g id="edge14" class="edge">
<title>Requester&#45;&gt;AppModule</title>
<path fill="none" stroke="black" d="M74,-84.89C74,-107.93 74,-144.8 74,-144.8 74,-144.8 936.05,-144.8 936.05,-144.8"/>
<polygon fill="black" stroke="black" points="936.05,-148.3 946.05,-144.8 936.05,-141.3 936.05,-148.3"/>
</g>
</g>
</svg>
