<?xml version="1.0" encoding="UTF-8" standalone="no"?>
<!DOCTYPE svg PUBLIC "-//W3C//DTD SVG 1.1//EN"
 "http://www.w3.org/Graphics/SVG/1.1/DTD/svg11.dtd">
<!-- Generated by graphviz version 2.47.3 (20210619.1520)
 -->
<!-- Title: dependencies Pages: 1 -->
<svg width="929pt" height="247pt"
 viewBox="0.00 0.00 929.00 246.80" xmlns="http://www.w3.org/2000/svg" xmlns:xlink="http://www.w3.org/1999/xlink">
<g id="graph0" class="graph" transform="scale(1 1) rotate(0) translate(4 242.8)">
<title>dependencies</title>
<polygon fill="white" stroke="transparent" points="-4,4 -4,-242.8 925,-242.8 925,4 -4,4"/>
<text text-anchor="middle" x="460.5" y="-8.2" font-family="sans-serif" font-size="14.00">dependencies</text>
<g id="clust1" class="cluster">
<title>cluster_MyCalendarModule</title>
<polygon fill="none" stroke="black" stroke-dasharray="1,5" points="8,-32.8 8,-230.8 913,-230.8 913,-32.8 8,-32.8"/>
</g>
<g id="clust2" class="cluster">
<title>cluster_MyCalendarModule_declarations</title>
<polygon fill="none" stroke="black" points="16,-40.8 16,-92.8 905,-92.8 905,-40.8 16,-40.8"/>
</g>
<g id="clust9" class="cluster">
<title>cluster_MyCalendarModule_exports</title>
<polygon fill="none" stroke="black" points="390,-170.8 390,-222.8 542,-222.8 542,-170.8 390,-170.8"/>
</g>
<!-- AvailabilityFormComponent -->
<g id="node1" class="node">
<title>AvailabilityFormComponent</title>
<polygon fill="#ffffb3" stroke="black" points="897.05,-84.8 718.95,-84.8 718.95,-48.8 897.05,-48.8 897.05,-84.8"/>
<text text-anchor="middle" x="808" y="-62.6" font-family="Times,serif" font-size="14.00">AvailabilityFormComponent</text>
</g>
<!-- MyCalendarModule -->
<g id="node6" class="node">
<title>MyCalendarModule</title>
<polygon fill="#8dd3c7" stroke="black" points="530.53,-149.8 527.53,-153.8 506.53,-153.8 503.53,-149.8 401.47,-149.8 401.47,-113.8 530.53,-113.8 530.53,-149.8"/>
<text text-anchor="middle" x="466" y="-127.6" font-family="Times,serif" font-size="14.00">MyCalendarModule</text>
</g>
<!-- AvailabilityFormComponent&#45;&gt;MyCalendarModule -->
<g id="edge1" class="edge">
<title>AvailabilityFormComponent&#45;&gt;MyCalendarModule</title>
<path fill="none" stroke="black" d="M808,-85.08C808,-106.12 808,-137.8 808,-137.8 808,-137.8 540.73,-137.8 540.73,-137.8"/>
<polygon fill="black" stroke="black" points="540.73,-134.3 530.73,-137.8 540.73,-141.3 540.73,-134.3"/>
</g>
<!-- CalendarComponent -->
<g id="node2" class="node">
<title>CalendarComponent</title>
<polygon fill="#ffffb3" stroke="black" points="700.86,-84.8 569.14,-84.8 569.14,-48.8 700.86,-48.8 700.86,-84.8"/>
<text text-anchor="middle" x="635" y="-62.6" font-family="Times,serif" font-size="14.00">CalendarComponent</text>
</g>
<!-- CalendarComponent&#45;&gt;MyCalendarModule -->
<g id="edge2" class="edge">
<title>CalendarComponent&#45;&gt;MyCalendarModule</title>
<path fill="none" stroke="black" d="M635,-84.82C635,-102.17 635,-125.8 635,-125.8 635,-125.8 540.86,-125.8 540.86,-125.8"/>
<polygon fill="black" stroke="black" points="540.86,-122.3 530.86,-125.8 540.86,-129.3 540.86,-122.3"/>
</g>
<!-- InterviewStatusComponent -->
<g id="node3" class="node">
<title>InterviewStatusComponent</title>
<polygon fill="#ffffb3" stroke="black" points="550.69,-84.8 381.31,-84.8 381.31,-48.8 550.69,-48.8 550.69,-84.8"/>
<text text-anchor="middle" x="466" y="-62.6" font-family="Times,serif" font-size="14.00">InterviewStatusComponent</text>
</g>
<!-- InterviewStatusComponent&#45;&gt;MyCalendarModule -->
<g id="edge3" class="edge">
<title>InterviewStatusComponent&#45;&gt;MyCalendarModule</title>
<path fill="none" stroke="black" d="M466,-84.91C466,-84.91 466,-103.79 466,-103.79"/>
<polygon fill="black" stroke="black" points="462.5,-103.79 466,-113.79 469.5,-103.79 462.5,-103.79"/>
</g>
<!-- SkillsFormComponent -->
<g id="node4" class="node">
<title>SkillsFormComponent</title>
<polygon fill="#ffffb3" stroke="black" points="363.57,-84.8 220.43,-84.8 220.43,-48.8 363.57,-48.8 363.57,-84.8"/>
<text text-anchor="middle" x="292" y="-62.6" font-family="Times,serif" font-size="14.00">SkillsFormComponent</text>
</g>
<!-- SkillsFormComponent&#45;&gt;MyCalendarModule -->
<g id="edge4" class="edge">
<title>SkillsFormComponent&#45;&gt;MyCalendarModule</title>
<path fill="none" stroke="black" d="M292,-84.82C292,-102.17 292,-125.8 292,-125.8 292,-125.8 391.21,-125.8 391.21,-125.8"/>
<polygon fill="black" stroke="black" points="391.21,-129.3 401.21,-125.8 391.21,-122.3 391.21,-129.3"/>
</g>
<!-- ViewAvailabilityComponent -->
<g id="node5" class="node">
<title>ViewAvailabilityComponent</title>
<polygon fill="#ffffb3" stroke="black" points="202.03,-84.8 23.97,-84.8 23.97,-48.8 202.03,-48.8 202.03,-84.8"/>
<text text-anchor="middle" x="113" y="-62.6" font-family="Times,serif" font-size="14.00">ViewAvailabilityComponent</text>
</g>
<!-- ViewAvailabilityComponent&#45;&gt;MyCalendarModule -->
<g id="edge5" class="edge">
<title>ViewAvailabilityComponent&#45;&gt;MyCalendarModule</title>
<path fill="none" stroke="black" d="M113,-85.08C113,-106.12 113,-137.8 113,-137.8 113,-137.8 391.25,-137.8 391.25,-137.8"/>
<polygon fill="black" stroke="black" points="391.25,-141.3 401.25,-137.8 391.25,-134.3 391.25,-141.3"/>
</g>
<!-- CalendarComponent  -->
<g id="node7" class="node">
<title>CalendarComponent </title>
<polygon fill="#fb8072" stroke="black" points="533.86,-214.8 398.14,-214.8 398.14,-178.8 533.86,-178.8 533.86,-214.8"/>
<text text-anchor="middle" x="466" y="-192.6" font-family="Times,serif" font-size="14.00">CalendarComponent </text>
</g>
<!-- MyCalendarModule&#45;&gt;CalendarComponent  -->
<g id="edge6" class="edge">
<title>MyCalendarModule&#45;&gt;CalendarComponent </title>
<path fill="none" stroke="black" stroke-dasharray="5,2" d="M466,-149.91C466,-149.91 466,-168.79 466,-168.79"/>
<polygon fill="black" stroke="black" points="462.5,-168.79 466,-178.79 469.5,-168.79 462.5,-168.79"/>
</g>
</g>
</svg>
